<?xml version="1.0" encoding="UTF-8" standalone="no"?>
<!DOCTYPE svg PUBLIC "-//W3C//DTD SVG 1.1//EN"
 "http://www.w3.org/Graphics/SVG/1.1/DTD/svg11.dtd">
<!-- Generated by graphviz version 2.43.0 (0)
 -->
<!-- Pages: 1 -->
<svg width="210pt" height="159pt"
 viewBox="0.00 0.00 210.00 159.00" xmlns="http://www.w3.org/2000/svg" xmlns:xlink="http://www.w3.org/1999/xlink">
<g id="graph0" class="graph" transform="scale(1 1) rotate(0) translate(4 155)">
<polygon fill="white" stroke="transparent" points="-4,4 -4,-155 206,-155 206,4 -4,4"/>
<text text-anchor="middle" x="101" y="-135" font-family="Times,serif" font-size="20.00">DC1</text>
<!-- spine2 -->
<g id="node1" class="node">
<title>spine2</title>
<path fill="#e0e0e0" stroke="black" d="M80,-125C80,-125 12,-125 12,-125 6,-125 0,-119 0,-113 0,-113 0,-96 0,-96 0,-90 6,-84 12,-84 12,-84 80,-84 80,-84 86,-84 92,-90 92,-96 92,-96 92,-113 92,-113 92,-119 86,-125 80,-125"/>
<text text-anchor="middle" x="46" y="-113" font-family="Times,serif" font-size="10.00">spine2</text>
<text text-anchor="middle" x="46" y="-102" font-family="Times,serif" font-size="10.00">lo0: 10.0.1.1/32</text>
<text text-anchor="middle" x="46" y="-91" font-family="Times,serif" font-size="10.00">AS:65001</text>
</g>
<!-- leaf2 -->
<g id="node2" class="node">
<title>leaf2</title>
<g id="a_node2"><a xlink:href="../config/leaf2.txt" xlink:title="leaf2&#10;lo0: 10.0.1.3/32&#10;AS: 65003">
<polygon fill="#e0eee0" stroke="black" points="147,-41 55,-41 55,0 147,0 147,-41"/>
<text text-anchor="middle" x="101" y="-29" font-family="Times,serif" font-size="10.00">leaf2</text>
<text text-anchor="middle" x="101" y="-18" font-family="Times,serif" font-size="10.00">lo0: 10.0.1.3/32</text>
<text text-anchor="middle" x="101" y="-7" font-family="Times,serif" font-size="10.00">AS: 65003</text>
</a>
</g>
</g>
<!-- spine2&#45;&gt;leaf2 -->
<g id="edge1" class="edge">
<title>spine2&#45;&gt;leaf2</title>
<path fill="none" stroke="black" d="M59.31,-83.65C67.96,-70.76 79.19,-54.02 87.81,-41.17"/>
<text text-anchor="middle" x="94" y="-61.2" font-family="Times,serif" font-size="6.00">10.0.0.6/31</text>
<polyline fill="none" stroke="black" points="112,-59 76,-59 79.8,-53.1 "/>
<text text-anchor="middle" x="72.31" y="-43.37" font-family="Times,serif" font-size="6.00">e50 ip: .7</text>
<text text-anchor="middle" x="45.81" y="-78.85" font-family="Times,serif" font-size="6.00">e2 ip: .6</text>
</g>
<!-- spine1 -->
<g id="node3" class="node">
<title>spine1</title>
<path fill="#e0e0e0" stroke="black" d="M190,-125C190,-125 122,-125 122,-125 116,-125 110,-119 110,-113 110,-113 110,-96 110,-96 110,-90 116,-84 122,-84 122,-84 190,-84 190,-84 196,-84 202,-90 202,-96 202,-96 202,-113 202,-113 202,-119 196,-125 190,-125"/>
<text text-anchor="middle" x="156" y="-113" font-family="Times,serif" font-size="10.00">spine1</text>
<text text-anchor="middle" x="156" y="-102" font-family="Times,serif" font-size="10.00">lo0: 10.0.1.0/32</text>
<text text-anchor="middle" x="156" y="-91" font-family="Times,serif" font-size="10.00">AS:65000</text>
</g>
<!-- spine1&#45;&gt;leaf2 -->
<g id="edge2" class="edge">
<title>spine1&#45;&gt;leaf2</title>
<path fill="none" stroke="black" d="M142.69,-83.65C134.04,-70.76 122.81,-54.02 114.19,-41.17"/>
<text text-anchor="middle" x="148" y="-61.2" font-family="Times,serif" font-size="6.00">10.0.0.4/31</text>
<polyline fill="none" stroke="black" points="166,-59 130,-59 134.44,-71.35 "/>
<text text-anchor="middle" x="129.69" y="-43.37" font-family="Times,serif" font-size="6.00">e49 ip: .5</text>
<text text-anchor="middle" x="129.19" y="-78.85" font-family="Times,serif" font-size="6.00">e2 ip: .4</text>
</g>
</g>
</svg>
