<?xml version="1.0" encoding="UTF-8" standalone="no"?>
<!DOCTYPE svg PUBLIC "-//W3C//DTD SVG 1.1//EN"
 "http://www.w3.org/Graphics/SVG/1.1/DTD/svg11.dtd">
<!-- Generated by graphviz version 2.43.0 (0)
 -->
<!-- Pages: 1 -->
<svg width="870pt" height="152pt"
 viewBox="0.00 0.00 870.00 152.00" xmlns="http://www.w3.org/2000/svg" xmlns:xlink="http://www.w3.org/1999/xlink">
<g id="graph0" class="graph" transform="scale(1 1) rotate(0) translate(4 148)">
<polygon fill="white" stroke="transparent" points="-4,4 -4,-148 866,-148 866,4 -4,4"/>
<text text-anchor="middle" x="431" y="-128" font-family="Times,serif" font-size="20.00">DC1</text>
<!-- spine1 -->
<g id="node1" class="node">
<title>spine1</title>
<path fill="#e0e0e0" stroke="black" d="M410,-118C410,-118 342,-118 342,-118 336,-118 330,-112 330,-106 330,-106 330,-89 330,-89 330,-83 336,-77 342,-77 342,-77 410,-77 410,-77 416,-77 422,-83 422,-89 422,-89 422,-106 422,-106 422,-112 416,-118 410,-118"/>
<text text-anchor="middle" x="376" y="-106" font-family="Times,serif" font-size="10.00">spine1</text>
<text text-anchor="middle" x="376" y="-95" font-family="Times,serif" font-size="10.00">lo0: 10.0.1.0/32</text>
<text text-anchor="middle" x="376" y="-84" font-family="Times,serif" font-size="10.00">as: 65000</text>
</g>
<!-- leaf1 -->
<g id="node2" class="node">
<title>leaf1</title>
<g id="a_node2"><a xlink:href="leaf1.svg" xlink:title="leaf1&#10;lo0: 10.0.1.2/32&#10;as: 65002&#10;">
<polygon fill="#e0eee0" stroke="black" points="92,-41 0,-41 0,0 92,0 92,-41"/>
<text text-anchor="middle" x="46" y="-29" font-family="Times,serif" font-size="10.00">leaf1</text>
<text text-anchor="middle" x="46" y="-18" font-family="Times,serif" font-size="10.00">lo0: 10.0.1.2/32</text>
<text text-anchor="middle" x="46" y="-7" font-family="Times,serif" font-size="10.00">as: 65002</text>
</a>
</g>
</g>
<!-- spine1&#45;&gt;leaf1 -->
<g id="edge1" class="edge">
<title>spine1&#45;&gt;leaf1</title>
<path fill="none" stroke="black" d="M329.79,-89.23C274.77,-80.11 180.33,-62.95 101,-41 98.07,-40.19 95.07,-39.3 92.06,-38.36"/>
</g>
<!-- leaf2 -->
<g id="node3" class="node">
<title>leaf2</title>
<g id="a_node3"><a xlink:href="leaf2.svg" xlink:title="leaf2&#10;lo0: 10.0.1.3/32&#10;as: 65003&#10;">
<polygon fill="#e0eee0" stroke="black" points="202,-41 110,-41 110,0 202,0 202,-41"/>
<text text-anchor="middle" x="156" y="-29" font-family="Times,serif" font-size="10.00">leaf2</text>
<text text-anchor="middle" x="156" y="-18" font-family="Times,serif" font-size="10.00">lo0: 10.0.1.3/32</text>
<text text-anchor="middle" x="156" y="-7" font-family="Times,serif" font-size="10.00">as: 65003</text>
</a>
</g>
</g>
<!-- spine1&#45;&gt;leaf2 -->
<g id="edge2" class="edge">
<title>spine1&#45;&gt;leaf2</title>
<path fill="none" stroke="black" d="M329.7,-81.15C296.59,-70.12 250.99,-54.81 211,-41 208.13,-40.01 205.17,-38.98 202.19,-37.94"/>
</g>
<!-- leaf3 -->
<g id="node4" class="node">
<title>leaf3</title>
<g id="a_node4"><a xlink:href="leaf3.svg" xlink:title="leaf3&#10;lo0: 10.0.1.4/32&#10;as: 65004&#10;">
<polygon fill="#e0eee0" stroke="black" points="312,-41 220,-41 220,0 312,0 312,-41"/>
<text text-anchor="middle" x="266" y="-29" font-family="Times,serif" font-size="10.00">leaf3</text>
<text text-anchor="middle" x="266" y="-18" font-family="Times,serif" font-size="10.00">lo0: 10.0.1.4/32</text>
<text text-anchor="middle" x="266" y="-7" font-family="Times,serif" font-size="10.00">as: 65004</text>
</a>
</g>
</g>
<!-- spine1&#45;&gt;leaf3 -->
<g id="edge3" class="edge">
<title>spine1&#45;&gt;leaf3</title>
<path fill="none" stroke="black" d="M347.39,-76.99C331.22,-65.97 311.06,-52.22 294.85,-41.17"/>
</g>
<!-- leaf4 -->
<g id="node5" class="node">
<title>leaf4</title>
<g id="a_node5"><a xlink:href="leaf4.svg" xlink:title="leaf4&#10;lo0: 10.0.1.5/32&#10;as: 65005&#10;">
<polygon fill="#e0eee0" stroke="black" points="422,-41 330,-41 330,0 422,0 422,-41"/>
<text text-anchor="middle" x="376" y="-29" font-family="Times,serif" font-size="10.00">leaf4</text>
<text text-anchor="middle" x="376" y="-18" font-family="Times,serif" font-size="10.00">lo0: 10.0.1.5/32</text>
<text text-anchor="middle" x="376" y="-7" font-family="Times,serif" font-size="10.00">as: 65005</text>
</a>
</g>
</g>
<!-- spine1&#45;&gt;leaf4 -->
<g id="edge4" class="edge">
<title>spine1&#45;&gt;leaf4</title>
<path fill="none" stroke="black" d="M376,-76.8C376,-65.77 376,-52.08 376,-41.07"/>
</g>
<!-- leaf5 -->
<g id="node6" class="node">
<title>leaf5</title>
<g id="a_node6"><a xlink:href="leaf5.svg" xlink:title="leaf5&#10;lo0: 10.0.1.6/32&#10;as: 65006&#10;">
<polygon fill="#e0eee0" stroke="black" points="532,-41 440,-41 440,0 532,0 532,-41"/>
<text text-anchor="middle" x="486" y="-29" font-family="Times,serif" font-size="10.00">leaf5</text>
<text text-anchor="middle" x="486" y="-18" font-family="Times,serif" font-size="10.00">lo0: 10.0.1.6/32</text>
<text text-anchor="middle" x="486" y="-7" font-family="Times,serif" font-size="10.00">as: 65006</text>
</a>
</g>
</g>
<!-- spine1&#45;&gt;leaf5 -->
<g id="edge5" class="edge">
<title>spine1&#45;&gt;leaf5</title>
<path fill="none" stroke="black" d="M404.61,-76.99C420.78,-65.97 440.94,-52.22 457.15,-41.17"/>
</g>
<!-- leaf6 -->
<g id="node7" class="node">
<title>leaf6</title>
<g id="a_node7"><a xlink:href="leaf6.svg" xlink:title="leaf6&#10;lo0: 10.0.1.7/32&#10;as: 65007&#10;">
<polygon fill="#e0eee0" stroke="black" points="642,-41 550,-41 550,0 642,0 642,-41"/>
<text text-anchor="middle" x="596" y="-29" font-family="Times,serif" font-size="10.00">leaf6</text>
<text text-anchor="middle" x="596" y="-18" font-family="Times,serif" font-size="10.00">lo0: 10.0.1.7/32</text>
<text text-anchor="middle" x="596" y="-7" font-family="Times,serif" font-size="10.00">as: 65007</text>
</a>
</g>
</g>
<!-- spine1&#45;&gt;leaf6 -->
<g id="edge6" class="edge">
<title>spine1&#45;&gt;leaf6</title>
<path fill="none" stroke="black" d="M422.18,-80.03C425.17,-79 428.12,-77.98 431,-77 479.69,-60.4 492.31,-57.6 541,-41 543.88,-40.02 546.83,-39 549.82,-37.97"/>
</g>
<!-- leaf7 -->
<g id="node8" class="node">
<title>leaf7</title>
<g id="a_node8"><a xlink:href="leaf7.svg" xlink:title="leaf7&#10;lo0: 10.0.1.8/32&#10;as: 65008&#10;">
<polygon fill="#e0eee0" stroke="black" points="752,-41 660,-41 660,0 752,0 752,-41"/>
<text text-anchor="middle" x="706" y="-29" font-family="Times,serif" font-size="10.00">leaf7</text>
<text text-anchor="middle" x="706" y="-18" font-family="Times,serif" font-size="10.00">lo0: 10.0.1.8/32</text>
<text text-anchor="middle" x="706" y="-7" font-family="Times,serif" font-size="10.00">as: 65008</text>
</a>
</g>
</g>
<!-- spine1&#45;&gt;leaf7 -->
<g id="edge7" class="edge">
<title>spine1&#45;&gt;leaf7</title>
<path fill="none" stroke="black" d="M422.03,-79.51C425.05,-78.6 428.06,-77.76 431,-77 526.96,-52.35 555.04,-65.65 651,-41 653.94,-40.24 656.95,-39.4 659.97,-38.49"/>
</g>
<!-- leaf8 -->
<g id="node9" class="node">
<title>leaf8</title>
<g id="a_node9"><a xlink:href="leaf8.svg" xlink:title="leaf8&#10;lo0: 10.0.1.9/32&#10;as: 65009&#10;">
<polygon fill="#e0eee0" stroke="black" points="862,-41 770,-41 770,0 862,0 862,-41"/>
<text text-anchor="middle" x="816" y="-29" font-family="Times,serif" font-size="10.00">leaf8</text>
<text text-anchor="middle" x="816" y="-18" font-family="Times,serif" font-size="10.00">lo0: 10.0.1.9/32</text>
<text text-anchor="middle" x="816" y="-7" font-family="Times,serif" font-size="10.00">as: 65009</text>
</a>
</g>
</g>
<!-- spine1&#45;&gt;leaf8 -->
<g id="edge8" class="edge">
<title>spine1&#45;&gt;leaf8</title>
<path fill="none" stroke="black" d="M422.29,-79.24C425.21,-78.41 428.14,-77.66 431,-77 574.83,-44.13 617.17,-73.87 761,-41 763.86,-40.34 766.79,-39.59 769.71,-38.76"/>
</g>
<!-- spine2 -->
<g id="node10" class="node">
<title>spine2</title>
<path fill="#e0e0e0" stroke="black" d="M520,-118C520,-118 452,-118 452,-118 446,-118 440,-112 440,-106 440,-106 440,-89 440,-89 440,-83 446,-77 452,-77 452,-77 520,-77 520,-77 526,-77 532,-83 532,-89 532,-89 532,-106 532,-106 532,-112 526,-118 520,-118"/>
<text text-anchor="middle" x="486" y="-106" font-family="Times,serif" font-size="10.00">spine2</text>
<text text-anchor="middle" x="486" y="-95" font-family="Times,serif" font-size="10.00">lo0: 10.0.1.1/32</text>
<text text-anchor="middle" x="486" y="-84" font-family="Times,serif" font-size="10.00">as: 65001</text>
</g>
<!-- spine2&#45;&gt;leaf1 -->
<g id="edge9" class="edge">
<title>spine2&#45;&gt;leaf1</title>
<path fill="none" stroke="black" d="M439.71,-79.24C436.79,-78.41 433.86,-77.66 431,-77 287.17,-44.13 244.83,-73.87 101,-41 98.14,-40.34 95.22,-39.59 92.29,-38.76"/>
</g>
<!-- spine2&#45;&gt;leaf2 -->
<g id="edge10" class="edge">
<title>spine2&#45;&gt;leaf2</title>
<path fill="none" stroke="black" d="M439.97,-79.51C436.95,-78.6 433.94,-77.76 431,-77 335.04,-52.35 306.96,-65.65 211,-41 208.06,-40.24 205.05,-39.4 202.03,-38.49"/>
</g>
<!-- spine2&#45;&gt;leaf3 -->
<g id="edge11" class="edge">
<title>spine2&#45;&gt;leaf3</title>
<path fill="none" stroke="black" d="M439.82,-80.03C436.83,-79 433.88,-77.98 431,-77 382.31,-60.4 369.69,-57.6 321,-41 318.12,-40.02 315.17,-39 312.18,-37.97"/>
</g>
<!-- spine2&#45;&gt;leaf4 -->
<g id="edge12" class="edge">
<title>spine2&#45;&gt;leaf4</title>
<path fill="none" stroke="black" d="M457.39,-76.99C441.22,-65.97 421.06,-52.22 404.85,-41.17"/>
</g>
<!-- spine2&#45;&gt;leaf5 -->
<g id="edge13" class="edge">
<title>spine2&#45;&gt;leaf5</title>
<path fill="none" stroke="black" d="M486,-76.8C486,-65.77 486,-52.08 486,-41.07"/>
</g>
<!-- spine2&#45;&gt;leaf6 -->
<g id="edge14" class="edge">
<title>spine2&#45;&gt;leaf6</title>
<path fill="none" stroke="black" d="M514.61,-76.99C530.78,-65.97 550.94,-52.22 567.15,-41.17"/>
</g>
<!-- spine2&#45;&gt;leaf7 -->
<g id="edge15" class="edge">
<title>spine2&#45;&gt;leaf7</title>
<path fill="none" stroke="black" d="M532.3,-81.15C565.41,-70.12 611.01,-54.81 651,-41 653.87,-40.01 656.83,-38.98 659.81,-37.94"/>
</g>
<!-- spine2&#45;&gt;leaf8 -->
<g id="edge16" class="edge">
<title>spine2&#45;&gt;leaf8</title>
<path fill="none" stroke="black" d="M532.21,-89.23C587.23,-80.11 681.67,-62.95 761,-41 763.93,-40.19 766.93,-39.3 769.94,-38.36"/>
</g>
</g>
</svg>
